<svg width="84" height="84" viewBox="0 0 84 84" fill="none" xmlns="http://www.w3.org/2000/svg">
<circle cx="42" cy="42" r="40" fill="white" stroke="#F37335" stroke-width="3"/>
<path d="M47.6844 64.0556C47.302 64.1508 46.912 64.2353 46.525 64.3065C45.5132 64.4944 44.8442 65.4662 45.0314 66.4774C45.1238 66.975 45.4068 67.3893 45.7909 67.6599C46.1869 67.9381 46.6908 68.0638 47.2043 67.9684C47.6652 67.883 48.1297 67.7825 48.5856 67.6689C49.5847 67.4206 50.1934 66.4098 49.9442 65.4126C49.6955 64.4145 48.6842 63.8071 47.6844 64.0556Z" fill="#F37335"/>
<path d="M62.5183 35.7088C62.6434 36.1063 62.8822 36.4308 63.1839 36.6551C63.6312 36.9872 64.2165 37.099 64.7751 36.9043C65.7115 36.5764 66.2189 35.5118 65.9091 34.525C65.7679 34.0752 65.6113 33.6239 65.4445 33.1845C65.0782 32.219 64.0394 31.7489 63.1231 32.1351C62.2077 32.5211 61.7617 33.6167 62.1283 34.5825C62.2685 34.9518 62.3998 35.3309 62.5183 35.7088Z" fill="#F37335"/>
<path d="M54.0096 60.3504C53.6695 60.5964 53.3184 60.8345 52.9649 61.0576C52.0423 61.6407 51.7263 62.9328 52.2583 63.9432C52.4027 64.2181 52.5951 64.4427 52.8166 64.6144C53.4113 65.0729 54.219 65.1416 54.8915 64.7171C55.3119 64.4514 55.7299 64.1688 56.1349 63.8753C57.0229 63.2325 57.2674 61.9218 56.6804 60.9484C56.0935 59.9746 54.8979 59.7071 54.0096 60.3504Z" fill="#F37335"/>
<path d="M67.9811 41.781C67.9377 40.7578 67.012 39.9615 65.9126 40.0014C64.8145 40.0418 63.9584 40.9038 64.0016 41.9266C64.0181 42.3176 64.0223 42.7145 64.0126 43.1051C63.9972 43.7467 64.3343 44.3187 64.8582 44.6624C65.1703 44.867 65.549 44.9908 65.9597 44.9995C67.0588 45.0222 67.9697 44.2107 67.9941 43.1871C68.005 42.7203 68.0009 42.2474 67.9811 41.781Z" fill="#F37335"/>
<path d="M62.1795 55.3936C61.2711 54.7414 59.9858 54.9184 59.3054 55.7862C59.0448 56.1185 58.7704 56.4468 58.4894 56.7628C57.7551 57.5884 57.8588 58.8284 58.7216 59.5316C58.7707 59.5715 58.8205 59.6081 58.872 59.6426C59.7297 60.2212 60.9217 60.0882 61.6152 59.3095C61.9507 58.9324 62.2778 58.5404 62.5892 58.1434C63.2697 57.2757 63.0855 56.0449 62.1795 55.3936Z" fill="#F37335"/>
<path d="M64.742 48.0866C63.7963 47.7759 62.7891 48.3275 62.4928 49.3184C62.3794 49.697 62.2537 50.0774 62.118 50.4499C61.82 51.2699 62.1055 52.1723 62.76 52.6558C62.88 52.7442 63.0123 52.8191 63.1559 52.876C64.0819 53.2462 65.1187 52.7595 65.4717 51.7889C65.6328 51.346 65.7823 50.8934 65.9175 50.4433C66.2136 49.4522 65.6875 48.3973 64.742 48.0866Z" fill="#F37335"/>
<path d="M38.505 63.9018C36.6891 63.5703 34.947 63.0058 33.2951 62.2184C33.2756 62.208 33.2581 62.1962 33.2376 62.1867C32.8483 62.0004 32.4597 61.8008 32.083 61.5923C32.0817 61.5908 32.0793 61.5898 32.0773 61.5889C31.3862 61.202 30.7117 60.7738 30.0564 60.3048C20.5016 53.4614 18.2042 39.9901 24.9354 30.2753C26.399 28.1637 28.1703 26.4019 30.145 25.0057C30.1693 24.9884 30.1936 24.9713 30.2177 24.954C37.1762 20.0791 46.6247 19.7506 54.0134 24.7599L52.4265 27.0913C51.9853 27.7402 52.2568 28.213 53.0291 28.1423L59.9224 27.5149C60.6957 27.4442 61.1582 26.7641 60.9502 26.0047L59.0991 19.2236C58.8919 18.4634 58.3613 18.3724 57.9197 19.0212L56.3291 21.358C50.9067 17.6571 44.4031 16.2459 37.948 17.384C37.2978 17.4984 36.6568 17.6384 36.0246 17.8014C36.0197 17.8023 36.0158 17.8029 36.0119 17.8038C35.9874 17.8098 35.9627 17.8179 35.9389 17.8246C30.3725 19.278 25.5159 22.5789 22.0504 27.2886C22.0212 27.3238 21.9911 27.3583 21.9635 27.3966C21.8483 27.5544 21.7339 27.7159 21.6219 27.8773C21.4388 28.1419 21.2583 28.4131 21.0856 28.6843C21.064 28.717 21.0475 28.7503 21.0286 28.7833C18.1688 33.289 16.7895 38.498 17.026 43.8012C17.0266 43.8186 17.0256 43.8362 17.026 43.8541C17.0489 44.3721 17.0893 44.8973 17.1442 45.4144C17.1471 45.4477 17.1544 45.4793 17.1599 45.5127C17.2166 46.0326 17.2878 46.5537 17.377 47.0747C18.2832 52.3906 20.7496 57.1742 24.4453 60.8963C24.4539 60.905 24.4628 60.9145 24.4715 60.9236C24.4745 60.927 24.4779 60.9288 24.4808 60.932C25.4738 61.9277 26.5538 62.8487 27.7167 63.6815C30.76 65.8618 34.1488 67.3031 37.7882 67.9671C38.8925 68.1689 39.9473 67.4215 40.1454 66.2993C40.3434 65.1763 39.609 64.1029 38.505 63.9018Z" fill="#F37335"/>
<path d="M40.7035 26C39.7623 26 39 26.7381 39 27.6472V44.0575L54.5153 51.816C54.765 51.9411 55.0324 52 55.2955 52C55.9117 52 56.507 51.6754 56.8096 51.109C57.2411 50.3006 56.9146 49.3075 56.0789 48.89L42.405 42.0516V27.6472C42.4049 26.7381 41.6435 26 40.7035 26Z" fill="#F37335"/>
</svg>
