<svg width="84" height="84" viewBox="0 0 84 84" fill="none" xmlns="http://www.w3.org/2000/svg">
<circle cx="42" cy="42" r="40" fill="white" stroke="#F37335" stroke-width="3"/>
<path fill-rule="evenodd" clip-rule="evenodd" d="M49 32C49 35.3084 46.3085 38 43.0002 38C39.6917 38 37 35.3084 37 32C37 28.6916 39.6917 26 43.0002 26C46.3085 26 49 28.6916 49 32ZM46 32C46 30.3458 44.6543 29 43.0002 29C41.3459 29 40 30.3458 40 32C40 33.6542 41.3459 35 43.0002 35C44.6543 35 46 33.6542 46 32Z" fill="#F37335"/>
<path fill-rule="evenodd" clip-rule="evenodd" d="M61.5305 48.3652H51.5206C56.1947 43.9082 60.4475 39.5393 60.4475 31.9297C60.4475 21.6767 52.7411 14 42.5002 14C32.2386 14 24.5525 21.6995 24.5525 31.9297C24.5525 39.5393 28.8054 43.9082 33.4796 48.3652H23.4695L18 65H67L61.5305 48.3652ZM27.5437 31.9297C27.5437 23.272 33.8338 16.9883 42.5002 16.9883C51.1664 16.9883 57.4563 23.272 57.4563 31.9297C57.4563 38.6277 53.5428 42.3344 48.8888 46.7424L48.8887 46.7424C46.8127 48.7087 44.5893 50.8146 42.5002 53.3878C40.4649 50.8811 38.2883 48.8119 36.1717 46.8001C31.3512 42.2179 27.5437 38.5986 27.5437 31.9297ZM34.1245 58.3262H23.3429L22.1311 62.0117H62.8689L61.6571 58.3262H50.8755V55.3379H60.6747L59.3646 51.3535H48.4825V51.2866C45.3927 54.3476 44.0737 56.1965 43.1904 57.4346C42.9346 57.7932 42.7153 58.1005 42.5002 58.3712C42.2922 58.1095 42.0772 57.8083 41.825 57.4549C40.9435 56.2198 39.6064 54.3465 36.5175 51.2864V51.3535H25.6355L24.3254 55.3379H34.1245V58.3262Z" fill="#F37335"/>
</svg>
