<svg width="84" height="84" viewBox="0 0 84 84" fill="none" xmlns="http://www.w3.org/2000/svg">
<circle cx="42" cy="42" r="40" fill="white" stroke="#FBB731" stroke-width="3"/>
<path fill-rule="evenodd" clip-rule="evenodd" d="M53.34 48.8623C56.1485 49.7907 59.109 50.2627 62.1316 50.2627C64.2644 50.2627 66 51.9982 66 54.1311V63.1316C66 65.2644 64.2644 67 62.1316 67C37.2473 67 17 46.7527 17 21.8684C17 19.7356 18.7356 18 20.8684 18H29.8948C32.0276 18 33.7632 19.7356 33.7632 21.8684C33.7632 24.8858 34.2377 27.849 35.1688 30.6704C35.6098 32.0811 35.2409 33.5847 34.2119 34.6162L30.1244 40.0475C33.4872 46.3865 37.5723 50.469 43.9526 53.8732L49.5154 49.6721C50.418 48.754 51.9706 48.3903 53.34 48.8623ZM62.1316 64.4211C62.8408 64.4211 63.4211 63.8434 63.4211 63.1316H63.4213V54.1311C63.4213 53.4193 62.8411 52.8416 62.1318 52.8416C58.8359 52.8416 55.6019 52.3259 52.5175 51.3071C52.0583 51.1551 51.5503 51.2736 51.2047 51.6141L44.8553 56.4264C44.4607 56.7255 43.9269 56.7719 43.4911 56.545C35.9245 52.6688 31.2797 48.0215 27.4551 40.509C27.2308 40.0706 27.2772 39.5419 27.5737 39.1473L32.2675 32.9321C32.7394 32.4422 32.8605 31.9443 32.711 31.4621C31.7001 28.3958 31.1843 25.1618 31.1843 21.8684C31.1843 21.1566 30.604 20.5789 29.8948 20.5789H20.8684C20.1592 20.5789 19.5789 21.1566 19.5789 21.8684C19.5789 45.3317 38.6683 64.4211 62.1316 64.4211Z" fill="#FBB731"/>
</svg>
