<svg width="12" height="16" viewBox="0 0 12 16" fill="none" xmlns="http://www.w3.org/2000/svg">
<path d="M11.977 9.52467L11.9656 9.36812C11.7823 6.98214 10.6713 5.48642 9.69125 4.16712C8.78372 2.94548 7.9999 1.89052 7.9999 0.333921C7.9999 0.208925 7.9299 0.0946795 7.81891 0.0373691C7.70757 -0.0202538 7.57379 -0.0108166 7.47258 0.0627744C6.00063 1.11611 4.77249 2.89145 4.34347 4.58539C4.04564 5.76472 4.00624 7.09051 4.00071 7.96614C2.64138 7.67577 2.33346 5.64232 2.33021 5.62019C2.31489 5.51473 2.25046 5.42292 2.15671 5.3728C2.062 5.32333 1.95066 5.31974 1.85463 5.36727C1.78335 5.40176 0.105007 6.25461 0.00735423 9.66008C0.000510736 9.77335 0.000198364 9.88663 0.000198364 10.0002C0.000198364 13.3084 2.69182 16 5.99998 16C9.30813 16 11.9998 13.3084 11.9998 10.0002C11.9998 9.83423 11.9884 9.67929 11.977 9.52467ZM5.99998 15.3334C4.89714 15.3334 4.00005 14.3777 4.00005 13.2029C4.00005 13.1629 3.99974 13.1225 4.00264 13.073C4.01599 12.5776 4.11008 12.2394 4.21326 12.0145C4.40663 12.4298 4.75262 12.8116 5.31381 12.8116C5.49806 12.8116 5.64714 12.6626 5.64714 12.4783C5.64714 12.0037 5.65693 11.4562 5.77508 10.9621C5.88023 10.5236 6.1315 10.0578 6.44987 9.68414C6.59145 10.1692 6.86751 10.5617 7.13703 10.9448C7.52276 11.493 7.9215 12.0597 7.9915 13.0261C7.99571 13.0834 7.99996 13.141 7.99996 13.2029C7.9999 14.3777 7.10281 15.3334 5.99998 15.3334ZM8.10652 14.8979C8.45251 14.426 8.66656 13.8428 8.66656 13.2029C8.66656 13.1245 8.66169 13.0515 8.65191 12.9152C8.57282 11.827 8.09983 11.1545 7.68223 10.5611C7.32646 10.0559 7.0195 9.61942 7.0195 9.00029C7.0195 8.87367 6.94788 8.75811 6.8346 8.7018C6.72198 8.64514 6.58592 8.65786 6.48533 8.73436C5.84604 9.2174 5.31284 10.0305 5.12666 10.8069C5.03161 11.205 4.99842 11.6356 4.9867 11.9898C4.75558 11.7411 4.68396 11.2802 4.68334 11.274C4.66837 11.1669 4.60262 11.0735 4.50659 11.0237C4.41122 10.9742 4.29698 10.9729 4.20095 11.0224C4.11695 11.0653 3.37904 11.4885 3.33673 13.0451C3.33379 13.0978 3.33348 13.1505 3.33348 13.2029C3.33348 13.8428 3.54754 14.4261 3.89352 14.8979C1.99784 14.0793 0.666924 12.1929 0.666924 10.0003C0.666924 9.90035 0.666611 9.80076 0.673423 9.68973C0.730702 7.69174 1.37002 6.7009 1.78732 6.26376C2.07831 7.30538 2.84066 8.66699 4.33344 8.66699C4.51769 8.66699 4.66678 8.5179 4.66678 8.33366C4.66678 7.21813 4.69184 5.92912 4.99001 4.74882C5.32853 3.41162 6.2559 1.96767 7.37533 0.990178C7.5612 2.41787 8.33883 3.46471 9.1562 4.56458C10.1279 5.87247 11.1324 7.22495 11.3007 9.41499L11.3121 9.57448C11.3225 9.71317 11.3332 9.85151 11.3332 10.0003C11.3331 12.1929 10.0022 14.0793 8.10652 14.8979Z" fill="#979797"/>
</svg>
